<mxfile host="app.diagrams.net" agent="Mozilla/5.0 (X11; Ubuntu; Linux x86_64; rv:138.0) Gecko/20100101 Firefox/138.0" version="27.0.6">
  <diagram name="Page-1" id="2IuwrcEHZPXtzdFcdliy">
    <mxGraphModel dx="1426" dy="795" grid="1" gridSize="10" guides="1" tooltips="1" connect="1" arrows="1" fold="1" page="1" pageScale="1" pageWidth="850" pageHeight="1100" math="0" shadow="0">
      <root>
        <mxCell id="0" />
        <mxCell id="1" parent="0" />
        <mxCell id="yDPN1Ur3vN4RVwyNuFDy-28" value="flex-start" style="text;html=1;align=right;verticalAlign=middle;whiteSpace=wrap;rounded=0;fillColor=none;fontColor=light-dark(#222832,#FFFFFF);strokeColor=none;fontSize=26;fontStyle=1" parent="1" vertex="1">
          <mxGeometry x="200" y="53.5" width="140" height="30" as="geometry" />
        </mxCell>
        <mxCell id="yDPN1Ur3vN4RVwyNuFDy-2" value="" style="rounded=0;whiteSpace=wrap;html=1;fillColor=none;strokeColor=light-dark(#222832,#FFFFFF);strokeWidth=2;aspect=fixed;fontColor=light-dark(#222832,#FFFFFF);" parent="1" vertex="1">
          <mxGeometry x="390" y="40" width="349.43" height="57" as="geometry" />
        </mxCell>
        <mxCell id="yDPN1Ur3vN4RVwyNuFDy-3" value="" style="rounded=0;whiteSpace=wrap;html=1;fillColor=none;strokeColor=light-dark(#222832,#FFFFFF);strokeWidth=2;aspect=fixed;fontColor=light-dark(#222832,#FFFFFF);" parent="1" vertex="1">
          <mxGeometry x="390" y="123" width="349.43" height="57" as="geometry" />
        </mxCell>
        <mxCell id="yDPN1Ur3vN4RVwyNuFDy-4" value="" style="rounded=0;whiteSpace=wrap;html=1;fillColor=none;strokeColor=light-dark(#222832,#FFFFFF);strokeWidth=2;aspect=fixed;fontColor=light-dark(#222832,#FFFFFF);" parent="1" vertex="1">
          <mxGeometry x="390" y="205" width="349.43" height="57" as="geometry" />
        </mxCell>
        <mxCell id="yDPN1Ur3vN4RVwyNuFDy-5" value="" style="rounded=0;whiteSpace=wrap;html=1;fillColor=none;strokeColor=light-dark(#222832,#FFFFFF);strokeWidth=2;aspect=fixed;fontColor=light-dark(#222832,#FFFFFF);" parent="1" vertex="1">
          <mxGeometry x="390" y="289" width="349.43" height="57" as="geometry" />
        </mxCell>
        <mxCell id="yDPN1Ur3vN4RVwyNuFDy-6" value="" style="rounded=0;whiteSpace=wrap;html=1;fillColor=none;strokeColor=light-dark(#222832,#FFFFFF);strokeWidth=2;aspect=fixed;fontColor=light-dark(#222832,#FFFFFF);" parent="1" vertex="1">
          <mxGeometry x="390" y="372" width="349.43" height="57" as="geometry" />
        </mxCell>
        <mxCell id="yDPN1Ur3vN4RVwyNuFDy-7" value="" style="rounded=0;whiteSpace=wrap;html=1;fillColor=none;strokeColor=light-dark(#222832,#FFFFFF);strokeWidth=2;aspect=fixed;fontColor=light-dark(#222832,#FFFFFF);" parent="1" vertex="1">
          <mxGeometry x="390" y="457" width="349.43" height="57" as="geometry" />
        </mxCell>
        <mxCell id="yDPN1Ur3vN4RVwyNuFDy-8" value="" style="rounded=1;whiteSpace=wrap;html=1;perimeterSpacing=10;arcSize=50;strokeColor=light-dark(#222832,#FFFFFF);fillColor=light-dark(#222832,#FFFFFF);aspect=fixed;fontColor=light-dark(#222832,#FFFFFF);" parent="1" vertex="1">
          <mxGeometry x="528.4300000000001" y="54.5" width="51" height="29" as="geometry" />
        </mxCell>
        <mxCell id="yDPN1Ur3vN4RVwyNuFDy-9" value="" style="rounded=1;whiteSpace=wrap;html=1;perimeterSpacing=10;arcSize=50;strokeColor=light-dark(#222832,#FFFFFF);fillColor=light-dark(#222832,#FFFFFF);aspect=fixed;fontColor=light-dark(#222832,#FFFFFF);" parent="1" vertex="1">
          <mxGeometry x="465.43000000000006" y="54.5" width="51" height="29" as="geometry" />
        </mxCell>
        <mxCell id="yDPN1Ur3vN4RVwyNuFDy-10" value="" style="rounded=1;whiteSpace=wrap;html=1;perimeterSpacing=10;arcSize=50;strokeColor=light-dark(#222832,#FFFFFF);fillColor=light-dark(#222832,#FFFFFF);aspect=fixed;fontColor=light-dark(#222832,#FFFFFF);" parent="1" vertex="1">
          <mxGeometry x="403.43" y="54.5" width="51" height="29" as="geometry" />
        </mxCell>
        <mxCell id="yDPN1Ur3vN4RVwyNuFDy-12" value="" style="rounded=1;whiteSpace=wrap;html=1;perimeterSpacing=10;arcSize=50;strokeColor=light-dark(#222832,#FFFFFF);fillColor=light-dark(#222832,#FFFFFF);aspect=fixed;fontColor=light-dark(#222832,#FFFFFF);" parent="1" vertex="1">
          <mxGeometry x="672.4300000000001" y="137" width="51" height="29" as="geometry" />
        </mxCell>
        <mxCell id="yDPN1Ur3vN4RVwyNuFDy-13" value="" style="rounded=1;whiteSpace=wrap;html=1;perimeterSpacing=10;arcSize=50;strokeColor=light-dark(#222832,#FFFFFF);fillColor=light-dark(#222832,#FFFFFF);aspect=fixed;fontColor=light-dark(#222832,#FFFFFF);" parent="1" vertex="1">
          <mxGeometry x="609.4300000000001" y="137" width="51" height="29" as="geometry" />
        </mxCell>
        <mxCell id="yDPN1Ur3vN4RVwyNuFDy-14" value="" style="rounded=1;whiteSpace=wrap;html=1;perimeterSpacing=10;arcSize=50;strokeColor=light-dark(#222832,#FFFFFF);fillColor=light-dark(#222832,#FFFFFF);aspect=fixed;fontColor=light-dark(#222832,#FFFFFF);" parent="1" vertex="1">
          <mxGeometry x="547.4300000000001" y="137" width="51" height="29" as="geometry" />
        </mxCell>
        <mxCell id="yDPN1Ur3vN4RVwyNuFDy-15" value="" style="rounded=1;whiteSpace=wrap;html=1;perimeterSpacing=10;arcSize=50;strokeColor=light-dark(#222832,#FFFFFF);fillColor=light-dark(#222832,#FFFFFF);aspect=fixed;fontColor=light-dark(#222832,#FFFFFF);" parent="1" vertex="1">
          <mxGeometry x="601.71" y="220" width="51" height="29" as="geometry" />
        </mxCell>
        <mxCell id="yDPN1Ur3vN4RVwyNuFDy-16" value="" style="rounded=1;whiteSpace=wrap;html=1;perimeterSpacing=10;arcSize=50;strokeColor=light-dark(#222832,#FFFFFF);fillColor=light-dark(#222832,#FFFFFF);aspect=fixed;fontColor=light-dark(#222832,#FFFFFF);" parent="1" vertex="1">
          <mxGeometry x="538.71" y="220" width="51" height="29" as="geometry" />
        </mxCell>
        <mxCell id="yDPN1Ur3vN4RVwyNuFDy-17" value="" style="rounded=1;whiteSpace=wrap;html=1;perimeterSpacing=10;arcSize=50;strokeColor=light-dark(#222832,#FFFFFF);fillColor=light-dark(#222832,#FFFFFF);aspect=fixed;fontColor=light-dark(#222832,#FFFFFF);" parent="1" vertex="1">
          <mxGeometry x="476.71000000000004" y="220" width="51" height="29" as="geometry" />
        </mxCell>
        <mxCell id="yDPN1Ur3vN4RVwyNuFDy-18" value="" style="rounded=1;whiteSpace=wrap;html=1;perimeterSpacing=10;arcSize=50;strokeColor=light-dark(#222832,#FFFFFF);fillColor=light-dark(#222832,#FFFFFF);aspect=fixed;fontColor=light-dark(#222832,#FFFFFF);" parent="1" vertex="1">
          <mxGeometry x="683.4300000000001" y="303" width="51" height="29" as="geometry" />
        </mxCell>
        <mxCell id="yDPN1Ur3vN4RVwyNuFDy-19" value="" style="rounded=1;whiteSpace=wrap;html=1;perimeterSpacing=10;arcSize=50;strokeColor=light-dark(#222832,#FFFFFF);fillColor=light-dark(#222832,#FFFFFF);aspect=fixed;fontColor=light-dark(#222832,#FFFFFF);" parent="1" vertex="1">
          <mxGeometry x="539.21" y="303" width="51" height="29" as="geometry" />
        </mxCell>
        <mxCell id="yDPN1Ur3vN4RVwyNuFDy-20" value="" style="rounded=1;whiteSpace=wrap;html=1;perimeterSpacing=10;arcSize=50;strokeColor=light-dark(#222832,#FFFFFF);fillColor=light-dark(#222832,#FFFFFF);aspect=fixed;fontColor=light-dark(#222832,#FFFFFF);" parent="1" vertex="1">
          <mxGeometry x="539.21" y="386" width="51" height="29" as="geometry" />
        </mxCell>
        <mxCell id="yDPN1Ur3vN4RVwyNuFDy-21" value="" style="rounded=1;whiteSpace=wrap;html=1;perimeterSpacing=10;arcSize=50;strokeColor=light-dark(#222832,#FFFFFF);fillColor=light-dark(#222832,#FFFFFF);aspect=fixed;fontColor=light-dark(#222832,#FFFFFF);" parent="1" vertex="1">
          <mxGeometry x="394.43" y="303" width="51" height="29" as="geometry" />
        </mxCell>
        <mxCell id="yDPN1Ur3vN4RVwyNuFDy-22" value="" style="rounded=1;whiteSpace=wrap;html=1;perimeterSpacing=10;arcSize=50;strokeColor=light-dark(#222832,#FFFFFF);fillColor=light-dark(#222832,#FFFFFF);aspect=fixed;fontColor=light-dark(#222832,#FFFFFF);" parent="1" vertex="1">
          <mxGeometry x="414.43" y="386" width="51" height="29" as="geometry" />
        </mxCell>
        <mxCell id="yDPN1Ur3vN4RVwyNuFDy-23" value="" style="rounded=1;whiteSpace=wrap;html=1;perimeterSpacing=10;arcSize=50;strokeColor=light-dark(#222832,#FFFFFF);fillColor=light-dark(#222832,#FFFFFF);aspect=fixed;fontColor=light-dark(#222832,#FFFFFF);" parent="1" vertex="1">
          <mxGeometry x="663.4300000000001" y="386" width="51" height="29" as="geometry" />
        </mxCell>
        <mxCell id="yDPN1Ur3vN4RVwyNuFDy-24" value="" style="rounded=1;whiteSpace=wrap;html=1;perimeterSpacing=10;arcSize=50;strokeColor=light-dark(#222832,#FFFFFF);fillColor=light-dark(#222832,#FFFFFF);aspect=fixed;fontColor=light-dark(#222832,#FFFFFF);" parent="1" vertex="1">
          <mxGeometry x="538.71" y="473" width="51" height="29" as="geometry" />
        </mxCell>
        <mxCell id="yDPN1Ur3vN4RVwyNuFDy-25" value="" style="rounded=1;whiteSpace=wrap;html=1;perimeterSpacing=10;arcSize=50;strokeColor=light-dark(#222832,#FFFFFF);fillColor=light-dark(#222832,#FFFFFF);aspect=fixed;fontColor=light-dark(#222832,#FFFFFF);" parent="1" vertex="1">
          <mxGeometry x="440.43" y="474" width="51" height="29" as="geometry" />
        </mxCell>
        <mxCell id="yDPN1Ur3vN4RVwyNuFDy-26" value="" style="rounded=1;whiteSpace=wrap;html=1;perimeterSpacing=10;arcSize=50;strokeColor=light-dark(#222832,#FFFFFF);fillColor=light-dark(#222832,#FFFFFF);aspect=fixed;fontColor=light-dark(#222832,#FFFFFF);" parent="1" vertex="1">
          <mxGeometry x="637.4300000000001" y="473" width="51" height="29" as="geometry" />
        </mxCell>
        <mxCell id="yDPN1Ur3vN4RVwyNuFDy-29" value="flex-end" style="text;html=1;align=right;verticalAlign=middle;whiteSpace=wrap;rounded=0;fillColor=none;fontColor=light-dark(#222832,#FFFFFF);strokeColor=none;fontSize=26;fontStyle=1" parent="1" vertex="1">
          <mxGeometry x="200" y="136.5" width="140" height="30" as="geometry" />
        </mxCell>
        <mxCell id="yDPN1Ur3vN4RVwyNuFDy-30" value="center" style="text;html=1;align=right;verticalAlign=middle;whiteSpace=wrap;rounded=0;fillColor=none;fontColor=light-dark(#222832,#FFFFFF);strokeColor=none;fontSize=26;fontStyle=1" parent="1" vertex="1">
          <mxGeometry x="200" y="219.5" width="140" height="30" as="geometry" />
        </mxCell>
        <mxCell id="yDPN1Ur3vN4RVwyNuFDy-31" value="space-between" style="text;html=1;align=right;verticalAlign=middle;whiteSpace=wrap;rounded=0;fillColor=none;fontColor=light-dark(#222832,#FFFFFF);strokeColor=none;fontSize=26;fontStyle=1" parent="1" vertex="1">
          <mxGeometry x="150" y="302.5" width="190" height="30" as="geometry" />
        </mxCell>
        <mxCell id="yDPN1Ur3vN4RVwyNuFDy-32" value="space-around" style="text;html=1;align=right;verticalAlign=middle;whiteSpace=wrap;rounded=0;fillColor=none;fontColor=light-dark(#222832,#FFFFFF);strokeColor=none;fontSize=26;fontStyle=1" parent="1" vertex="1">
          <mxGeometry x="130" y="385.5" width="210" height="30" as="geometry" />
        </mxCell>
        <mxCell id="yDPN1Ur3vN4RVwyNuFDy-33" value="space-evenly" style="text;html=1;align=right;verticalAlign=middle;whiteSpace=wrap;rounded=0;fillColor=none;fontColor=light-dark(#222832,#FFFFFF);strokeColor=none;fontSize=26;fontStyle=1" parent="1" vertex="1">
          <mxGeometry x="130" y="470.5" width="210" height="30" as="geometry" />
        </mxCell>
      </root>
    </mxGraphModel>
  </diagram>
</mxfile>
